# xmcd
# 
# Track frame offsets:
#     150
#     45725
#     60116
#     86232
#     104967
#     121589
#     142488
#     165655
#     193635
#     213838
# 
# Disc length: 3157
# 
# Revision: 2
# Processed by: cddbd v1.5.2PL0 Copyright (c) Steve Scherf et al.
# Submitted via: fre:ac v1.0.17
# 
DISCID=900c530a
DTITLE=Erik Truffaz - In Between
DYEAR=2010
DGENRE=Jazz
TTITLE0=The Secret of the Dead Sea
TTITLE1=Let Me Go ! (Featuring Sophie Hunger)
TTITLE2=Mechanic Cosmetic
TTITLE3=Fujin
TTITLE4=Dirge (Featuring Sophie Hunger)
TTITLE5=In Between
TTITLE6=Lost in Bogota
TTITLE7=Balbec
TTITLE8=BC One
TTITLE9=Les gens du voyage
EXTD=YEAR: 2010
EXTT0=
EXTT1=
EXTT2=
EXTT3=
EXTT4=
EXTT5=
EXTT6=
EXTT7=
EXTT8=
EXTT9=
PLAYORDER=
